<svg xmlns="http://www.w3.org/2000/svg" viewBox="0 0 400.25 240.79"><title>arrow</title><path d="M444.23,307a40.64,40.64,0,1,1-57.47,57.47L256,233.73,125.25,364.49A40.64,40.64,0,0,1,67.76,307l159.5-159.51a40.64,40.64,0,0,1,57.47,0Zm-6.16,28.74a22.47,22.47,0,0,0-6.61-16L271.55,159.89c-8.53-8.14-23.12-8-31.51.39L80.53,319.79a22.61,22.61,0,0,0,0,31.93c8.54,8.53,23.41,8.53,31.94,0L256,208.19,399.53,351.72c8.53,8.54,23.39,8.54,31.93,0A22.42,22.42,0,0,0,438.07,335.76Z" transform="translate(-55.88 -135.61)"/><path d="M431.46,319.79a22.58,22.58,0,0,1,0,31.93c-8.54,8.54-23.4,8.54-31.93,0L256,208.19,112.47,351.72c-8.53,8.53-23.4,8.53-31.94,0a22.61,22.61,0,0,1,0-31.93L240,160.28c8.39-8.4,23-8.53,31.51-.39Z" transform="translate(-55.88 -135.61)" className="fillred fillgreen" style="fill:red"/></svg>